<svg width="48" height="48" viewBox="0 0 48 48" fill="none" xmlns="http://www.w3.org/2000/svg">
<rect width="48" height="48" rx="24" fill="url(#paint0_linear_1_3100)" fill-opacity="0.5"/>
<rect x="0.5" y="0.5" width="47" height="47" rx="23.5" stroke="url(#paint1_linear_1_3100)" stroke-opacity="0.5"/>
<g filter="url(#filter0_d_1_3100)">
<path d="M20.625 14.25H27.375C27.5813 14.25 27.75 14.4188 27.75 14.625V16.5H20.25V14.625C20.25 14.4188 20.4187 14.25 20.625 14.25ZM18 14.625V16.5H15C13.3453 16.5 12 17.8453 12 19.5V24H21H27H36V19.5C36 17.8453 34.6547 16.5 33 16.5H30V14.625C30 13.1766 28.8234 12 27.375 12H20.625C19.1766 12 18 13.1766 18 14.625ZM36 25.5H27V27C27 27.8297 26.3297 28.5 25.5 28.5H22.5C21.6703 28.5 21 27.8297 21 27V25.5H12V31.5C12 33.1547 13.3453 34.5 15 34.5H33C34.6547 34.5 36 33.1547 36 31.5V25.5Z" fill="#009688"/>
<path d="M27.75 17H28.25V16.5V14.625C28.25 14.1426 27.8574 13.75 27.375 13.75H20.625C20.1426 13.75 19.75 14.1426 19.75 14.625V16.5V17H20.25H27.75ZM18 17H18.5V16.5V14.625C18.5 13.4527 19.4527 12.5 20.625 12.5H27.375C28.5473 12.5 29.5 13.4527 29.5 14.625V16.5V17H30H33C34.3785 17 35.5 18.1215 35.5 19.5V23.5H27H21H12.5V19.5C12.5 18.1215 13.6215 17 15 17H18ZM27.5 26H35.5V31.5C35.5 32.8785 34.3785 34 33 34H15C13.6215 34 12.5 32.8785 12.5 31.5V26H20.5V27C20.5 28.1058 21.3942 29 22.5 29H25.5C26.6058 29 27.5 28.1058 27.5 27V26Z" stroke="#008B7E"/>
</g>
<defs>
<filter id="filter0_d_1_3100" x="8" y="12" width="32" height="30.5" filterUnits="userSpaceOnUse" color-interpolation-filters="sRGB">
<feFlood flood-opacity="0" result="BackgroundImageFix"/>
<feColorMatrix in="SourceAlpha" type="matrix" values="0 0 0 0 0 0 0 0 0 0 0 0 0 0 0 0 0 0 127 0" result="hardAlpha"/>
<feOffset dy="4"/>
<feGaussianBlur stdDeviation="2"/>
<feComposite in2="hardAlpha" operator="out"/>
<feColorMatrix type="matrix" values="0 0 0 0 0 0 0 0 0 0.588235 0 0 0 0 0.533333 0 0 0 0.16 0"/>
<feBlend mode="normal" in2="BackgroundImageFix" result="effect1_dropShadow_1_3100"/>
<feBlend mode="normal" in="SourceGraphic" in2="effect1_dropShadow_1_3100" result="shape"/>
</filter>
<linearGradient id="paint0_linear_1_3100" x1="25.2857" y1="-5.75054e-07" x2="25.7466" y2="47.9997" gradientUnits="userSpaceOnUse">
<stop stop-color="#E4EAF5"/>
<stop offset="1" stop-color="#E9EDF4"/>
</linearGradient>
<linearGradient id="paint1_linear_1_3100" x1="25.2857" y1="2.09292e-09" x2="26.2075" y2="47.5543" gradientUnits="userSpaceOnUse">
<stop offset="0.0001" stop-color="#DCDFE4"/>
<stop offset="1" stop-color="white" stop-opacity="0"/>
</linearGradient>
</defs>
</svg>
