<svg width="48" height="48" viewBox="0 0 48 48" fill="none" xmlns="http://www.w3.org/2000/svg">
<rect width="48" height="48" rx="24" fill="url(#paint0_linear_1_3134)" fill-opacity="0.5"/>
<rect x="0.5" y="0.5" width="47" height="47" rx="23.5" stroke="url(#paint1_linear_1_3134)" stroke-opacity="0.5"/>
<g filter="url(#filter0_d_1_3134)">
<path d="M17.5 13.5V15H15.25C14.0078 15 13 16.0078 13 17.25V19.5H34V17.25C34 16.0078 32.9922 15 31.75 15H29.5V13.5C29.5 12.6703 28.8297 12 28 12C27.1703 12 26.5 12.6703 26.5 13.5V15H20.5V13.5C20.5 12.6703 19.8297 12 19 12C18.1703 12 17.5 12.6703 17.5 13.5ZM34 21H13V33.75C13 34.9922 14.0078 36 15.25 36H31.75C32.9922 36 34 34.9922 34 33.75V21Z" fill="#009688"/>
<path d="M17.5 15.5H18V15V13.5C18 12.9465 18.4465 12.5 19 12.5C19.5535 12.5 20 12.9465 20 13.5V15V15.5H20.5H26.5H27V15V13.5C27 12.9465 27.4465 12.5 28 12.5C28.5535 12.5 29 12.9465 29 13.5V15V15.5H29.5H31.75C32.716 15.5 33.5 16.284 33.5 17.25V19H13.5V17.25C13.5 16.284 14.284 15.5 15.25 15.5H17.5ZM13.5 33.75V21.5H33.5V33.75C33.5 34.716 32.716 35.5 31.75 35.5H15.25C14.284 35.5 13.5 34.716 13.5 33.75Z" stroke="#008B7E"/>
</g>
<defs>
<filter id="filter0_d_1_3134" x="9" y="12" width="29" height="32" filterUnits="userSpaceOnUse" color-interpolation-filters="sRGB">
<feFlood flood-opacity="0" result="BackgroundImageFix"/>
<feColorMatrix in="SourceAlpha" type="matrix" values="0 0 0 0 0 0 0 0 0 0 0 0 0 0 0 0 0 0 127 0" result="hardAlpha"/>
<feOffset dy="4"/>
<feGaussianBlur stdDeviation="2"/>
<feComposite in2="hardAlpha" operator="out"/>
<feColorMatrix type="matrix" values="0 0 0 0 0 0 0 0 0 0.588235 0 0 0 0 0.533333 0 0 0 0.16 0"/>
<feBlend mode="normal" in2="BackgroundImageFix" result="effect1_dropShadow_1_3134"/>
<feBlend mode="normal" in="SourceGraphic" in2="effect1_dropShadow_1_3134" result="shape"/>
</filter>
<linearGradient id="paint0_linear_1_3134" x1="25.2857" y1="-5.75054e-07" x2="25.7466" y2="47.9997" gradientUnits="userSpaceOnUse">
<stop stop-color="#E4EAF5"/>
<stop offset="1" stop-color="#E9EDF4"/>
</linearGradient>
<linearGradient id="paint1_linear_1_3134" x1="25.2857" y1="2.09292e-09" x2="26.2075" y2="47.5543" gradientUnits="userSpaceOnUse">
<stop offset="0.0001" stop-color="#DCDFE4"/>
<stop offset="1" stop-color="white" stop-opacity="0"/>
</linearGradient>
</defs>
</svg>
