<svg width="48" height="48" viewBox="0 0 48 48" fill="none" xmlns="http://www.w3.org/2000/svg">
<rect width="48" height="48" rx="24" fill="url(#paint0_linear_1_3117)" fill-opacity="0.5"/>
<rect x="0.5" y="0.5" width="47" height="47" rx="23.5" stroke="url(#paint1_linear_1_3117)" stroke-opacity="0.5"/>
<g filter="url(#filter0_d_1_3117)">
<path d="M25.875 15.375C25.875 14.8777 25.6775 14.4008 25.3258 14.0492C24.9742 13.6975 24.4973 13.5 24 13.5C23.5027 13.5 23.0258 13.6975 22.6742 14.0492C22.3225 14.4008 22.125 14.8777 22.125 15.375C22.125 15.8723 22.3225 16.3492 22.6742 16.7008C23.0258 17.0525 23.5027 17.25 24 17.25C24.4973 17.25 24.9742 17.0525 25.3258 16.7008C25.6775 16.3492 25.875 15.8723 25.875 15.375ZM15.75 21.75C16.2473 21.75 16.7242 21.5525 17.0758 21.2008C17.4275 20.8492 17.625 20.3723 17.625 19.875C17.625 19.3777 17.4275 18.9008 17.0758 18.5492C16.7242 18.1975 16.2473 18 15.75 18C15.2527 18 14.7758 18.1975 14.4242 18.5492C14.0725 18.9008 13.875 19.3777 13.875 19.875C13.875 20.3723 14.0725 20.8492 14.4242 21.2008C14.7758 21.5525 15.2527 21.75 15.75 21.75ZM10.5 31.5C9.67031 31.5 9 32.1703 9 33C9 33.8297 9.67031 34.5 10.5 34.5H37.5C38.3297 34.5 39 33.8297 39 33C39 32.1703 38.3297 31.5 37.5 31.5H10.5ZM32.25 21.75C32.7473 21.75 33.2242 21.5525 33.5758 21.2008C33.9275 20.8492 34.125 20.3723 34.125 19.875C34.125 19.3777 33.9275 18.9008 33.5758 18.5492C33.2242 18.1975 32.7473 18 32.25 18C31.7527 18 31.2758 18.1975 30.9242 18.5492C30.5725 18.9008 30.375 19.3777 30.375 19.875C30.375 20.3723 30.5725 20.8492 30.9242 21.2008C31.2758 21.5525 31.7527 21.75 32.25 21.75ZM18.375 26.6953L19.6359 29.0344C19.9313 29.5828 20.6109 29.7844 21.1594 29.4938C21.7078 29.2031 21.9094 28.5188 21.6188 27.9703L19.9172 24.8063C19.9969 24.7266 20.0672 24.6375 20.1188 24.5344L21.375 22.1953V24.75C21.375 25.5797 22.0453 26.25 22.875 26.25H25.125C25.9547 26.25 26.625 25.5797 26.625 24.75V22.1953L27.8859 24.5344C27.9422 24.6375 28.0078 24.7266 28.0875 24.8063L26.3859 27.9703C26.0906 28.5188 26.2969 29.1984 26.8453 29.4938C27.3938 29.7891 28.0734 29.5828 28.3688 29.0344L29.625 26.6953V28.5C29.625 29.3297 30.2953 30 31.125 30H33.375C34.2047 30 34.875 29.3297 34.875 28.5V26.6953L36.1359 29.0344C36.4313 29.5828 37.1109 29.7844 37.6594 29.4938C38.2078 29.2031 38.4094 28.5188 38.1188 27.9703L36.3422 24.675C35.625 23.3391 34.2281 22.5047 32.7094 22.5047H31.7906C31.0266 22.5047 30.2953 22.7156 29.6625 23.0953L28.0875 20.175C27.3703 18.8391 25.9734 18.0047 24.4547 18.0047H23.5406C22.0219 18.0047 20.6297 18.8391 19.9078 20.175L18.3328 23.0953C17.7 22.7156 16.9688 22.5047 16.2047 22.5047H15.2906C13.7719 22.5047 12.3797 23.3391 11.6578 24.675L9.88594 27.9656C9.59063 28.5141 9.79688 29.1938 10.3453 29.4891C10.8938 29.7844 11.5734 29.5781 11.8688 29.0297L13.125 26.6953V28.5C13.125 29.3297 13.7953 30 14.625 30H16.875C17.7047 30 18.375 29.3297 18.375 28.5V26.6953Z" fill="#009688"/>
<path d="M17.875 26.6953L18.8151 26.4581L20.0761 28.7971L20.0762 28.7973C20.2397 29.101 20.6169 29.2153 20.9253 29.0519C21.2233 28.894 21.3412 28.5158 21.1776 28.2056C21.1774 28.2052 21.1771 28.2048 21.1769 28.2044L19.4768 25.0431L19.3007 24.7156L19.5636 24.4527C19.616 24.4003 19.65 24.3539 19.6715 24.3108L19.6748 24.3042L19.6783 24.2978L20.9345 21.9587L21.875 22.1953V24.75C21.875 25.3035 22.3215 25.75 22.875 25.75H25.125C25.6785 25.75 26.125 25.3035 26.125 24.75V22.1953L27.0651 21.9581L28.3249 24.295C28.3251 24.2953 28.3252 24.2956 28.3254 24.2959C28.3603 24.3597 28.3978 24.4094 28.4411 24.4527L28.704 24.7156L28.5279 25.0431L26.8263 28.2071L26.8262 28.2074C26.6627 28.511 26.7754 28.8882 27.0824 29.0535C27.3859 29.217 27.7629 29.1044 27.9283 28.7978L17.875 26.6953ZM17.875 26.6953V28.5C17.875 29.0535 17.4285 29.5 16.875 29.5H14.625C14.0715 29.5 13.625 29.0535 13.625 28.5V26.6953L12.6847 26.4584L11.4285 28.7926C11.2632 29.0996 10.886 29.2123 10.5824 29.0488C10.2754 28.8836 10.1627 28.5064 10.3262 28.2027L12.0977 24.9127C12.0978 24.9126 12.0978 24.9124 12.0979 24.9123C12.733 23.7374 13.9566 23.0047 15.2906 23.0047H16.2047C16.876 23.0047 17.5186 23.1899 18.0756 23.5241L18.5244 23.7934L18.7729 23.3327L20.3477 20.4127L17.875 26.6953ZM29.1845 26.4587L27.9285 28.7973L20.3479 20.4123C20.9829 19.2374 22.2066 18.5047 23.5406 18.5047H24.4547C25.7897 18.5047 27.0171 19.2382 27.647 20.4115L27.6474 20.4123L29.2224 23.3327L29.4709 23.7934L29.9197 23.5241C30.4767 23.1899 31.1193 23.0047 31.7906 23.0047H32.7094C34.0444 23.0047 35.2718 23.7382 35.9017 24.9115L35.9021 24.9123L37.6769 28.2044C37.6772 28.2049 37.6774 28.2053 37.6776 28.2057C37.8412 28.516 37.7233 28.894 37.4253 29.0519C37.1169 29.2153 36.7397 29.101 36.5762 28.7973L36.5761 28.7971L35.3151 26.4581L34.375 26.6953V28.5C34.375 29.0535 33.9285 29.5 33.375 29.5H31.125C30.5715 29.5 30.125 29.0535 30.125 28.5V26.6953L29.1845 26.4587ZM24.9723 14.4027C25.2301 14.6606 25.375 15.0103 25.375 15.375C25.375 15.7397 25.2301 16.0894 24.9723 16.3473C24.7144 16.6051 24.3647 16.75 24 16.75C23.6353 16.75 23.2856 16.6051 23.0277 16.3473L22.6742 16.7008L23.0277 16.3473C22.7699 16.0894 22.625 15.7397 22.625 15.375C22.625 15.0103 22.7699 14.6606 23.0277 14.4027L22.6742 14.0492L23.0277 14.4027C23.2856 14.1449 23.6353 14 24 14C24.3647 14 24.7144 14.1449 24.9723 14.4027ZM16.7223 20.8473C16.4644 21.1051 16.1147 21.25 15.75 21.25C15.3853 21.25 15.0356 21.1051 14.7777 20.8473C14.5199 20.5894 14.375 20.2397 14.375 19.875C14.375 19.5103 14.5199 19.1606 14.7777 18.9027C15.0356 18.6449 15.3853 18.5 15.75 18.5C16.1147 18.5 16.4644 18.6449 16.7223 18.9027C16.9801 19.1606 17.125 19.5103 17.125 19.875C17.125 20.2397 16.9801 20.5894 16.7223 20.8473ZM9.5 33C9.5 32.4465 9.94646 32 10.5 32H37.5C38.0535 32 38.5 32.4465 38.5 33C38.5 33.5535 38.0535 34 37.5 34H10.5C9.94645 34 9.5 33.5535 9.5 33ZM33.2223 20.8473C32.9644 21.1051 32.6147 21.25 32.25 21.25C31.8853 21.25 31.5356 21.1051 31.2777 20.8473C31.0199 20.5894 30.875 20.2397 30.875 19.875C30.875 19.5103 31.0199 19.1606 31.2777 18.9027C31.5356 18.6449 31.8853 18.5 32.25 18.5C32.6147 18.5 32.9644 18.6449 33.2223 18.9027C33.4801 19.1606 33.625 19.5103 33.625 19.875C33.625 20.2397 33.4801 20.5894 33.2223 20.8473Z" stroke="#008B7E"/>
</g>
<defs>
<filter id="filter0_d_1_3117" x="5" y="13.5" width="38" height="29" filterUnits="userSpaceOnUse" color-interpolation-filters="sRGB">
<feFlood flood-opacity="0" result="BackgroundImageFix"/>
<feColorMatrix in="SourceAlpha" type="matrix" values="0 0 0 0 0 0 0 0 0 0 0 0 0 0 0 0 0 0 127 0" result="hardAlpha"/>
<feOffset dy="4"/>
<feGaussianBlur stdDeviation="2"/>
<feComposite in2="hardAlpha" operator="out"/>
<feColorMatrix type="matrix" values="0 0 0 0 0 0 0 0 0 0.588235 0 0 0 0 0.533333 0 0 0 0.16 0"/>
<feBlend mode="normal" in2="BackgroundImageFix" result="effect1_dropShadow_1_3117"/>
<feBlend mode="normal" in="SourceGraphic" in2="effect1_dropShadow_1_3117" result="shape"/>
</filter>
<linearGradient id="paint0_linear_1_3117" x1="25.2857" y1="-5.75054e-07" x2="25.7466" y2="47.9997" gradientUnits="userSpaceOnUse">
<stop stop-color="#E4EAF5"/>
<stop offset="1" stop-color="#E9EDF4"/>
</linearGradient>
<linearGradient id="paint1_linear_1_3117" x1="25.2857" y1="2.09292e-09" x2="26.2075" y2="47.5543" gradientUnits="userSpaceOnUse">
<stop offset="0.0001" stop-color="#DCDFE4"/>
<stop offset="1" stop-color="white" stop-opacity="0"/>
</linearGradient>
</defs>
</svg>
